<?xml version="1.0" encoding="iso-8859-1"?>
<!-- Generator: Adobe Illustrator 19.0.0, SVG Export Plug-In . SVG Version: 6.00 Build 0)  -->
<svg version="1.1" id="Capa_1" xmlns="http://www.w3.org/2000/svg" xmlns:xlink="http://www.w3.org/1999/xlink" x="0px" y="0px"
	 viewBox="0 0 512.001 512.001" style="enable-background:new 0 0 512.001 512.001;" xml:space="preserve">
<path style="fill:#F7931E;" d="M201.243,308.631h34.382v-11.645c0-0.473-0.331-0.881-0.794-0.979
	c-22.063-4.659-42.378-16.532-58.748-34.337c-21.063-22.908-33.144-53.643-33.144-84.323v-36.059c0-2.54,2.067-4.606,4.607-4.606
	h87.848c15.749,0,30.457-6.191,41.416-17.432c0.861-0.883,2.065-1.39,3.299-1.39s2.436,0.506,3.298,1.39
	c10.96,11.241,25.669,17.432,41.416,17.432h39.63c2.541,0,4.607,2.066,4.607,4.606v36.059c0,30.68-12.081,61.415-33.145,84.323
	c-16.371,17.805-36.686,29.679-58.748,34.337c-0.462,0.098-0.793,0.506-0.793,0.979v11.645h34.384
	c60.264-17.697,103.23-65.854,103.23-138.906C413.989,75.987,343.257,0,256.001,0C168.746,0,98.013,75.987,98.013,169.725
	C98.013,242.777,140.979,290.934,201.243,308.631z"/>
<path style="opacity:0.1;enable-background:new    ;" d="M201.243,308.631h26.152c-60.277-17.689-103.258-65.843-103.258-138.906
	c0-89.011,63.783-162.007,144.926-169.143C264.756,0.202,260.4,0,256.001,0C168.746,0,98.013,75.987,98.013,169.725
	C98.013,242.777,140.979,290.934,201.243,308.631z"/>
<path style="fill:#E6E9ED;" d="M330.936,307.631h-53.561V342h-42.75v-34.369h-53.561c-32.305,0-58.585,26.281-58.585,58.586v138.971
	c0,3.762,3.05,6.813,6.812,6.813h253.417c3.763,0,6.811-3.05,6.811-6.813V366.217C389.52,333.912,363.24,307.631,330.936,307.631z"
	/>
<g style="opacity:0.1;">
	<path d="M154.819,505.188V366.217c0-32.305,26.281-58.586,58.585-58.586h-32.339c-32.305,0-58.585,26.281-58.585,58.586v138.971
		c0,3.762,3.05,6.813,6.812,6.813h32.339C157.869,512,154.819,508.95,154.819,505.188z"/>
</g>
<g>
	<path style="fill:#C5CCD3;" d="M334.439,420c2.582,0,5.091,0.313,7.5,0.885V309.5c0-4.142-3.357-7.5-7.5-7.5s-7.5,3.358-7.5,7.5
		v111.385C329.348,420.312,331.857,420,334.439,420z"/>
	<path style="fill:#C5CCD3;" d="M191.994,396.931c-0.824-1.151-1.111-2.48-0.807-3.744c0.303-1.264,1.163-2.318,2.42-2.969
		l3.394-1.758v-19.093l-13.047-6.083c-0.801-0.374-1.452-0.937-1.953-1.612v78.318c2.365-0.762,4.884-1.179,7.5-1.179
		s5.135,0.417,7.5,1.179v-36.067L191.994,396.931z"/>
	<circle style="fill:#C5CCD3;" cx="189.501" cy="463.31" r="19"/>
</g>
<g style="opacity:0.1;">
	<path d="M183.175,463.311c0-8.268,5.29-15.283,12.664-17.895c-1.985-0.703-4.112-1.105-6.338-1.105c-10.493,0-19,8.507-19,19
		c0,10.494,8.507,19.001,19,19.001c2.226,0,4.353-0.402,6.338-1.105C188.466,478.595,183.175,471.58,183.175,463.311z"/>
</g>
<path style="fill:#9EA7AF;" d="M189.501,489.813c-14.612,0-26.5-11.888-26.5-26.501c0-14.612,11.888-26.5,26.5-26.5
	c14.613,0,26.501,11.888,26.501,26.5C216.002,477.924,204.114,489.813,189.501,489.813z M189.501,451.811
	c-6.341,0-11.5,5.159-11.5,11.5c0,6.342,5.159,11.501,11.5,11.501c6.342,0,11.501-5.159,11.501-11.501
	C201.002,456.97,195.843,451.811,189.501,451.811z"/>
<g>
	<path style="fill:#FFFFFF;" d="M331.264,355.807l-22.759-42.509c-1.67-3.116-5.928-5.667-9.463-5.667h-22.667v151.94l44.445-62.058
		c2.058-2.875,1.174-6.557-1.966-8.183l-15.283-7.914c-3.141-1.626-3.087-4.178,0.119-5.673l24.779-11.553
		C331.677,362.697,332.932,358.923,331.264,355.807z"/>
	<path style="fill:#FFFFFF;" d="M235.626,307.631h-22.667c-3.536,0-7.795,2.551-9.464,5.667l-22.757,42.509
		c-1.67,3.116-0.414,6.89,2.793,8.384l24.78,11.553c3.206,1.495,3.258,4.047,0.118,5.673l-15.282,7.914
		c-3.14,1.626-4.024,5.309-1.966,8.183l44.445,62.06V307.631z"/>
</g>
<g>
	<path style="fill:#FFB98A;" d="M142.94,177.347v-8.517h-2.321c-16.547,0-29.962,13.415-29.962,29.96
		c0,16.547,13.415,29.962,29.962,29.962h13.689C146.929,212.592,142.94,194.962,142.94,177.347z"/>
	<path style="fill:#FFB98A;" d="M371.384,168.83h-2.322v8.517c0,17.615-3.99,35.246-11.369,51.405h13.691
		c16.546,0,29.959-13.415,29.959-29.962C401.343,182.245,387.929,168.83,371.384,168.83z"/>
</g>
<path style="fill:#FFD5B3;" d="M364.454,135.681h-39.63c-15.478,0-29.93-6.083-40.7-17.13c-1.056-1.082-2.503-1.691-4.014-1.691
	c-1.511,0-2.959,0.609-4.015,1.691c-10.77,11.047-25.225,17.13-40.7,17.13h-87.848c-3.097,0-5.607,2.511-5.607,5.606v36.059
	c0,30.929,12.177,61.91,33.408,85c16.616,18.072,37.149,29.966,59.278,34.639V342h42.75v-45.015
	c22.13-4.672,42.661-16.566,59.277-34.639c21.23-23.09,33.408-54.071,33.408-85v-36.059
	C370.061,138.192,367.552,135.681,364.454,135.681z"/>
<rect x="234.621" y="340.63" style="fill:#FB8276;" width="42.75" height="171.37"/>
<g>
	<path style="fill:#775436;" d="M263.848,220.666h-8.074c-6.975,0-12.651-5.675-12.651-12.651V185.39c0-4.142,3.358-7.5,7.5-7.5
		s7.5,3.358,7.5,7.5v20.276h5.725c4.142,0,7.5,3.358,7.5,7.5S267.991,220.666,263.848,220.666z"/>
	<path style="fill:#775436;" d="M256.001,263.129c-13.53,0-27.056-5.148-37.356-15.449c-2.929-2.929-2.929-7.678,0-10.607
		s7.678-2.929,10.606,0c14.751,14.751,38.75,14.749,53.502-0.001c2.928-2.928,7.677-2.928,10.606,0.001s2.929,7.678-0.001,10.607
		C283.06,257.978,269.528,263.129,256.001,263.129z"/>
</g>
<path style="fill:#9EA7AF;" d="M359.377,498.381h-8.832c-4.143,0-7.5-3.358-7.5-7.5s3.357-7.5,7.5-7.5h1.332v-31.984
	c0-9.616-7.822-17.439-17.438-17.439c-9.615,0-17.439,7.823-17.439,17.439v31.984h1.333c4.143,0,7.5,3.358,7.5,7.5
	s-3.357,7.5-7.5,7.5h-8.832c-4.143,0-7.5-3.358-7.5-7.5v-39.484c0-17.887,14.552-32.439,32.439-32.439
	c17.886,0,32.438,14.552,32.438,32.439v39.484C366.877,495.023,363.519,498.381,359.377,498.381z"/>
<g>
	<path style="fill:#775436;" d="M201.615,199.419c-4.142,0-7.5-3.358-7.5-7.5v-19.063c0-4.142,3.358-7.5,7.5-7.5s7.5,3.358,7.5,7.5
		v19.063C209.115,196.061,205.758,199.419,201.615,199.419z"/>
	<path style="fill:#775436;" d="M310.386,199.419c-4.143,0-7.5-3.358-7.5-7.5v-19.063c0-4.142,3.357-7.5,7.5-7.5s7.5,3.358,7.5,7.5
		v19.063C317.886,196.061,314.528,199.419,310.386,199.419z"/>
</g>
<g>
</g>
<g>
</g>
<g>
</g>
<g>
</g>
<g>
</g>
<g>
</g>
<g>
</g>
<g>
</g>
<g>
</g>
<g>
</g>
<g>
</g>
<g>
</g>
<g>
</g>
<g>
</g>
<g>
</g>
</svg>
