<?xml version="1.0" encoding="iso-8859-1"?>
<!-- Generator: Adobe Illustrator 19.0.0, SVG Export Plug-In . SVG Version: 6.00 Build 0)  -->
<svg version="1.1" id="Capa_1" xmlns="http://www.w3.org/2000/svg" xmlns:xlink="http://www.w3.org/1999/xlink" x="0px" y="0px"
	 viewBox="0 0 468.286 468.286" style="enable-background:new 0 0 468.286 468.286;" xml:space="preserve">
<g>
	<rect x="39.892" y="99.181" style="fill:#44C4A1;" width="428.394" height="248.751"/>
	<rect x="108.007" y="347.907" style="fill:#44C4A1;" width="193.03" height="52.973"/>
</g>
<path style="fill:#D5D6DB;" d="M32.983,67.382H0v13.819h32.983v319.702h13.819V81.202C46.802,73.58,40.601,67.382,32.983,67.382z"/>
<rect x="13.156" y="132.748" style="fill:#27A2DB;" width="19.831" height="41.46"/>
<g>
	<rect x="46.804" y="132.748" style="fill:#64798A;" width="26.093" height="41.46"/>
	<rect x="46.804" y="201.843" style="fill:#64798A;" width="26.093" height="41.46"/>
</g>
<g>
	<rect x="13.156" y="201.843" style="fill:#FCD462;" width="19.831" height="41.46"/>
	<rect x="134.743" y="372.883" style="fill:#FCD462;" width="13.818" height="28.01"/>
	<rect x="166.213" y="372.883" style="fill:#FCD462;" width="13.818" height="28.01"/>
	<rect x="197.62" y="372.883" style="fill:#FCD462;" width="13.818" height="28.01"/>
	<rect x="229.026" y="372.883" style="fill:#FCD462;" width="13.818" height="28.01"/>
	<rect x="260.496" y="372.883" style="fill:#FCD462;" width="13.818" height="28.01"/>
</g>
<g>
	<circle style="fill:#31978C;" cx="433.745" cy="133.729" r="13.818"/>
	<circle style="fill:#31978C;" cx="433.745" cy="313.378" r="13.818"/>
</g>
<g>
	<rect x="165.838" y="125.724" style="fill:#FCD462;" width="15.61" height="87.415"/>
	<rect x="197.058" y="125.724" style="fill:#FCD462;" width="15.61" height="87.415"/>
	<rect x="134.619" y="125.724" style="fill:#FCD462;" width="15.61" height="87.415"/>
	<rect x="311.383" y="125.724" style="fill:#FCD462;" width="15.61" height="87.415"/>
	<rect x="342.603" y="125.724" style="fill:#FCD462;" width="15.61" height="87.415"/>
	<rect x="280.164" y="125.724" style="fill:#FCD462;" width="15.61" height="87.415"/>
	<rect x="165.838" y="233.968" style="fill:#FCD462;" width="15.61" height="87.415"/>
	<rect x="197.058" y="233.968" style="fill:#FCD462;" width="15.61" height="87.415"/>
	<rect x="134.619" y="233.968" style="fill:#FCD462;" width="15.61" height="87.415"/>
	<rect x="311.383" y="233.968" style="fill:#FCD462;" width="15.61" height="87.415"/>
	<rect x="342.603" y="233.968" style="fill:#FCD462;" width="15.61" height="87.415"/>
	<rect x="280.164" y="233.968" style="fill:#FCD462;" width="15.61" height="87.415"/>
</g>
<g>
	<rect x="119.577" y="136.601" style="fill:#64798A;" width="108.101" height="65.661"/>
	<rect x="265.141" y="136.601" style="fill:#64798A;" width="108.101" height="65.661"/>
	<rect x="119.577" y="244.845" style="fill:#64798A;" width="108.101" height="65.661"/>
	<rect x="265.141" y="244.845" style="fill:#64798A;" width="108.101" height="65.661"/>
</g>
<g>
</g>
<g>
</g>
<g>
</g>
<g>
</g>
<g>
</g>
<g>
</g>
<g>
</g>
<g>
</g>
<g>
</g>
<g>
</g>
<g>
</g>
<g>
</g>
<g>
</g>
<g>
</g>
<g>
</g>
</svg>
